<svg width="225" height="225" viewBox="0 0 225 225" fill="none" xmlns="http://www.w3.org/2000/svg">
<g id="Frame" clip-path="url(#clip0_120_1086)">
<g id="Group" filter="url(#filter0_diii_120_1086)">
<path id="Vector" d="M204.909 64.7645L107.636 8.60377C94.995 1.30572 78.8316 5.6367 71.5335 18.2773L15.3728 115.551C8.07475 128.191 12.4057 144.355 25.0463 151.653L122.32 207.813C134.96 215.111 151.124 210.78 158.422 198.14L214.582 100.867C221.88 88.226 217.549 72.0625 204.909 64.7645Z" fill="#EEEEEE"/>
</g>
<g id="Group_2" filter="url(#filter1_i_120_1086)">
<path id="Vector_2" d="M181.136 66.2977L118.194 29.9584C102.394 20.8358 82.1892 26.2496 73.0666 42.0503L36.7273 104.992C27.6048 120.793 33.0185 140.997 48.8192 150.119L111.761 186.459C127.561 195.581 147.766 190.168 156.888 174.367L193.228 111.425C202.35 95.6246 196.936 75.4202 181.136 66.2977Z" fill="#F0F0F0"/>
<path id="Vector_3" d="M181.136 66.2977L118.194 29.9584C102.394 20.8358 82.1892 26.2496 73.0666 42.0503L36.7273 104.992C27.6048 120.793 33.0185 140.997 48.8192 150.119L111.761 186.459C127.561 195.581 147.766 190.168 156.888 174.367L193.228 111.425C202.35 95.6246 196.936 75.4202 181.136 66.2977Z" fill="url(#paint0_linear_120_1086)" fill-opacity="0.05"/>
</g>
<g id="Group_3" opacity="0.9" filter="url(#filter2_ii_120_1086)">
<path id="Vector_4" d="M58.406 113.693C62.0552 107.373 70.1368 105.207 76.4571 108.857C82.7774 112.506 84.9431 120.587 81.2939 126.908C77.6446 133.228 69.5631 135.393 63.2428 131.744C56.9225 128.095 54.7568 120.014 58.406 113.693Z" fill="#222222"/>
<path id="Vector_5" d="M58.406 113.693C62.0552 107.373 70.1368 105.207 76.4571 108.857C82.7774 112.506 84.9431 120.587 81.2939 126.908C77.6446 133.228 69.5631 135.393 63.2428 131.744C56.9225 128.095 54.7568 120.014 58.406 113.693Z" fill="url(#paint1_radial_120_1086)" fill-opacity="0.3"/>
<path id="Vector_6" d="M64.0688 130.314C58.5385 127.121 56.6437 120.049 59.8366 114.519L56.9757 112.867C52.8706 119.978 55.3067 129.07 62.417 133.175L64.0688 130.314ZM79.8635 126.082C76.6706 131.612 69.5991 133.507 64.0688 130.314L62.417 133.175C69.5273 137.28 78.6193 134.844 82.7244 127.733L79.8635 126.082ZM75.6313 110.287C81.1616 113.48 83.0564 120.551 79.8635 126.082L82.7244 127.733C86.8295 120.623 84.3934 111.531 77.2831 107.426L75.6313 110.287ZM77.2831 107.426C70.1728 103.321 61.0808 105.757 56.9757 112.867L59.8366 114.519C63.0295 108.989 70.101 107.094 75.6313 110.287L77.2831 107.426Z" fill="black"/>
</g>
<g id="Group_4" opacity="0.9" filter="url(#filter3_ii_120_1086)">
<path id="Vector_7" d="M115.626 146.729C119.275 140.408 127.356 138.243 133.677 141.892C139.997 145.541 142.163 153.623 138.513 159.943C134.864 166.264 126.783 168.429 120.462 164.78C114.142 161.131 111.976 153.05 115.626 146.729Z" fill="#222222"/>
<path id="Vector_8" d="M115.626 146.729C119.275 140.408 127.356 138.243 133.677 141.892C139.997 145.541 142.163 153.623 138.513 159.943C134.864 166.264 126.783 168.429 120.462 164.78C114.142 161.131 111.976 153.05 115.626 146.729Z" fill="url(#paint2_radial_120_1086)" fill-opacity="0.3"/>
<path id="Vector_9" d="M121.288 163.35C115.758 160.157 113.863 153.085 117.056 147.555L114.195 145.903C110.09 153.013 112.526 162.105 119.636 166.211L121.288 163.35ZM137.083 159.117C133.89 164.648 126.819 166.542 121.288 163.35L119.636 166.211C126.747 170.316 135.839 167.879 139.944 160.769L137.083 159.117ZM132.851 143.323C138.381 146.516 140.276 153.587 137.083 159.117L139.944 160.769C144.049 153.659 141.613 144.567 134.503 140.462L132.851 143.323ZM134.503 140.462C127.392 136.357 118.3 138.793 114.195 145.903L117.056 147.555C120.249 142.025 127.321 140.13 132.851 143.323L134.503 140.462Z" fill="black"/>
</g>
<g id="Group_5" opacity="0.9" filter="url(#filter4_ii_120_1086)">
<path id="Vector_10" d="M148.661 89.5095C152.31 83.1891 160.392 81.0235 166.712 84.6727C173.033 88.3219 175.198 96.4034 171.549 102.724C167.9 109.044 159.819 111.21 153.498 107.561C147.177 103.911 145.012 95.8298 148.661 89.5095Z" fill="#222222"/>
<path id="Vector_11" d="M148.661 89.5095C152.31 83.1891 160.392 81.0235 166.712 84.6727C173.033 88.3219 175.198 96.4034 171.549 102.724C167.9 109.044 159.819 111.21 153.498 107.561C147.177 103.911 145.012 95.8298 148.661 89.5095Z" fill="url(#paint3_radial_120_1086)" fill-opacity="0.3"/>
<path id="Vector_12" d="M154.324 106.13C148.794 102.937 146.899 95.8656 150.092 90.3354L147.231 88.6836C143.126 95.7939 145.562 104.886 152.672 108.991L154.324 106.13ZM170.119 101.898C166.926 107.428 159.854 109.323 154.324 106.13L152.672 108.991C159.782 113.096 168.874 110.66 172.98 103.55L170.119 101.898ZM165.886 86.1032C171.417 89.2961 173.311 96.3676 170.119 101.898L172.98 103.55C177.085 96.4393 174.648 87.3473 167.538 83.2422L165.886 86.1032ZM167.538 83.2422C160.428 79.1371 151.336 81.5733 147.231 88.6836L150.092 90.3354C153.285 84.8051 160.356 82.9103 165.886 86.1032L167.538 83.2422Z" fill="black"/>
</g>
<g id="Group_6" opacity="0.9" filter="url(#filter5_ii_120_1086)">
<path id="Vector_13" d="M91.4417 56.4738C95.0907 50.1534 103.172 47.988 109.493 51.637C115.813 55.286 117.979 63.3677 114.329 69.6881C110.68 76.0084 102.599 78.1739 96.2784 74.5248C89.9581 70.8758 87.7926 62.7941 91.4417 56.4738Z" fill="#222222"/>
<path id="Vector_14" d="M91.4417 56.4738C95.0907 50.1534 103.172 47.988 109.493 51.637C115.813 55.286 117.979 63.3677 114.329 69.6881C110.68 76.0084 102.599 78.1739 96.2784 74.5248C89.9581 70.8758 87.7926 62.7941 91.4417 56.4738Z" fill="url(#paint4_radial_120_1086)" fill-opacity="0.3"/>
<path id="Vector_15" d="M97.1044 73.0943C91.5742 69.9014 89.6794 62.8299 92.8723 57.2997L90.0113 55.6479C85.9062 62.7582 88.3423 71.8502 95.4527 75.9553L97.1044 73.0943ZM112.899 68.8622C109.706 74.3924 102.635 76.2872 97.1044 73.0943L95.4527 75.9553C102.563 80.0605 111.655 77.6243 115.76 70.514L112.899 68.8622ZM108.667 53.0675C114.197 56.2604 116.092 63.3319 112.899 68.8622L115.76 70.514C119.865 63.4036 117.429 54.3117 110.319 50.2065L108.667 53.0675ZM110.319 50.2065C103.208 46.1014 94.1164 48.5376 90.0113 55.6479L92.8723 57.2997C96.0652 51.7694 103.137 49.8746 108.667 53.0675L110.319 50.2065Z" fill="black"/>
</g>
<g id="Group_7" opacity="0.9" filter="url(#filter6_ii_120_1086)">
<path id="Vector_16" d="M74.9239 85.0835C78.5729 78.7632 86.6546 76.5977 92.9749 80.2468C99.2952 83.8958 101.461 91.9775 97.8117 98.2978C94.1625 104.618 86.081 106.784 79.7606 103.135C73.4403 99.4855 71.2747 91.4042 74.9239 85.0835Z" fill="#222222"/>
<path id="Vector_17" d="M74.9239 85.0835C78.5729 78.7632 86.6546 76.5977 92.9749 80.2468C99.2952 83.8958 101.461 91.9775 97.8117 98.2978C94.1625 104.618 86.081 106.784 79.7606 103.135C73.4403 99.4855 71.2747 91.4042 74.9239 85.0835Z" fill="url(#paint5_radial_120_1086)" fill-opacity="0.3"/>
<path id="Vector_18" d="M80.5866 101.704C75.0564 98.5112 73.1616 91.4397 76.3545 85.9094L73.4935 84.2577C69.3884 91.3679 71.8245 100.46 78.9348 104.565L80.5866 101.704ZM96.3813 97.4719C93.1884 103.002 86.1169 104.897 80.5866 101.704L78.9348 104.565C86.0452 108.67 95.1372 106.234 99.2423 99.1237L96.3813 97.4719ZM92.1491 81.6773C97.6794 84.8702 99.5742 91.9417 96.3813 97.4719L99.2423 99.1237C103.347 92.0134 100.911 82.9214 93.8009 78.8163L92.1491 81.6773ZM93.8009 78.8163C86.6906 74.7111 77.5986 77.1473 73.4935 84.2577L76.3545 85.9094C79.5474 80.3792 86.6189 78.4844 92.1491 81.6773L93.8009 78.8163Z" fill="black"/>
</g>
<g id="Group_8" opacity="0.9" filter="url(#filter7_ii_120_1086)">
<path id="Vector_19" d="M132.143 118.119C135.792 111.799 143.874 109.633 150.194 113.282C156.515 116.932 158.68 125.013 155.031 131.334C151.382 137.654 143.301 139.82 136.98 136.17C130.659 132.521 128.494 124.44 132.143 118.119Z" fill="#222222"/>
<path id="Vector_20" d="M132.143 118.119C135.792 111.799 143.874 109.633 150.194 113.282C156.515 116.932 158.68 125.013 155.031 131.334C151.382 137.654 143.301 139.82 136.98 136.17C130.659 132.521 128.494 124.44 132.143 118.119Z" fill="url(#paint6_radial_120_1086)" fill-opacity="0.3"/>
<path id="Vector_21" d="M137.806 134.74C132.276 131.547 130.381 124.475 133.574 118.945L130.713 117.293C126.608 124.404 129.044 133.496 136.154 137.601L137.806 134.74ZM153.601 130.508C150.408 136.038 143.336 137.933 137.806 134.74L136.154 137.601C143.265 141.706 152.357 139.27 156.462 132.159L153.601 130.508ZM149.369 114.713C154.899 117.906 156.794 124.977 153.601 130.508L156.462 132.159C160.567 125.049 158.131 115.957 151.02 111.852L149.369 114.713ZM151.02 111.852C143.91 107.747 134.818 110.183 130.713 117.293L133.574 118.945C136.767 113.415 143.838 111.52 149.369 114.713L151.02 111.852Z" fill="black"/>
</g>
</g>
<defs>
<filter id="filter0_diii_120_1086" x="-0.172363" y="-18.9414" width="230.3" height="248.3" filterUnits="userSpaceOnUse" color-interpolation-filters="sRGB">
<feFlood flood-opacity="0" result="BackgroundImageFix"/>
<feColorMatrix in="SourceAlpha" type="matrix" values="0 0 0 0 0 0 0 0 0 0 0 0 0 0 0 0 0 0 127 0" result="hardAlpha"/>
<feOffset dy="6"/>
<feGaussianBlur stdDeviation="6"/>
<feComposite in2="hardAlpha" operator="out"/>
<feColorMatrix type="matrix" values="0 0 0 0 0 0 0 0 0 0 0 0 0 0 0 0 0 0 0.1 0"/>
<feBlend mode="normal" in2="BackgroundImageFix" result="effect1_dropShadow_120_1086"/>
<feBlend mode="normal" in="SourceGraphic" in2="effect1_dropShadow_120_1086" result="shape"/>
<feColorMatrix in="SourceAlpha" type="matrix" values="0 0 0 0 0 0 0 0 0 0 0 0 0 0 0 0 0 0 127 0" result="hardAlpha"/>
<feOffset dx="8" dy="8"/>
<feGaussianBlur stdDeviation="16"/>
<feComposite in2="hardAlpha" operator="arithmetic" k2="-1" k3="1"/>
<feColorMatrix type="matrix" values="0 0 0 0 0 0 0 0 0 0 0 0 0 0 0 0 0 0 0.05 0"/>
<feBlend mode="normal" in2="shape" result="effect2_innerShadow_120_1086"/>
<feColorMatrix in="SourceAlpha" type="matrix" values="0 0 0 0 0 0 0 0 0 0 0 0 0 0 0 0 0 0 127 0" result="hardAlpha"/>
<feOffset dx="-8" dy="8"/>
<feGaussianBlur stdDeviation="6"/>
<feComposite in2="hardAlpha" operator="arithmetic" k2="-1" k3="1"/>
<feColorMatrix type="matrix" values="0 0 0 0 1 0 0 0 0 1 0 0 0 0 1 0 0 0 1 0"/>
<feBlend mode="normal" in2="effect2_innerShadow_120_1086" result="effect3_innerShadow_120_1086"/>
<feColorMatrix in="SourceAlpha" type="matrix" values="0 0 0 0 0 0 0 0 0 0 0 0 0 0 0 0 0 0 127 0" result="hardAlpha"/>
<feOffset dx="-8" dy="-24"/>
<feGaussianBlur stdDeviation="16"/>
<feComposite in2="hardAlpha" operator="arithmetic" k2="-1" k3="1"/>
<feColorMatrix type="matrix" values="0 0 0 0 0 0 0 0 0 0 0 0 0 0 0 0 0 0 0.1 0"/>
<feBlend mode="normal" in2="effect3_innerShadow_120_1086" result="effect4_innerShadow_120_1086"/>
</filter>
<filter id="filter1_i_120_1086" x="32.2959" y="13.5269" width="189.363" height="177.363" filterUnits="userSpaceOnUse" color-interpolation-filters="sRGB">
<feFlood flood-opacity="0" result="BackgroundImageFix"/>
<feBlend mode="normal" in="SourceGraphic" in2="BackgroundImageFix" result="shape"/>
<feColorMatrix in="SourceAlpha" type="matrix" values="0 0 0 0 0 0 0 0 0 0 0 0 0 0 0 0 0 0 127 0" result="hardAlpha"/>
<feOffset dx="24" dy="-12"/>
<feGaussianBlur stdDeviation="12"/>
<feComposite in2="hardAlpha" operator="arithmetic" k2="-1" k3="1"/>
<feColorMatrix type="matrix" values="0 0 0 0 1 0 0 0 0 1 0 0 0 0 1 0 0 0 0.3 0"/>
<feBlend mode="normal" in2="shape" result="effect1_innerShadow_120_1086"/>
</filter>
<filter id="filter2_ii_120_1086" x="51.9814" y="101.432" width="34.7371" height="35.7371" filterUnits="userSpaceOnUse" color-interpolation-filters="sRGB">
<feFlood flood-opacity="0" result="BackgroundImageFix"/>
<feBlend mode="normal" in="SourceGraphic" in2="BackgroundImageFix" result="shape"/>
<feColorMatrix in="SourceAlpha" type="matrix" values="0 0 0 0 0 0 0 0 0 0 0 0 0 0 0 0 0 0 127 0" result="hardAlpha"/>
<feOffset dx="-3" dy="2"/>
<feGaussianBlur stdDeviation="4"/>
<feComposite in2="hardAlpha" operator="arithmetic" k2="-1" k3="1"/>
<feColorMatrix type="matrix" values="0 0 0 0 1 0 0 0 0 1 0 0 0 0 1 0 0 0 0.2 0"/>
<feBlend mode="normal" in2="shape" result="effect1_innerShadow_120_1086"/>
<feColorMatrix in="SourceAlpha" type="matrix" values="0 0 0 0 0 0 0 0 0 0 0 0 0 0 0 0 0 0 127 0" result="hardAlpha"/>
<feOffset dx="2" dy="-8"/>
<feGaussianBlur stdDeviation="2"/>
<feComposite in2="hardAlpha" operator="arithmetic" k2="-1" k3="1"/>
<feColorMatrix type="matrix" values="0 0 0 0 0 0 0 0 0 0 0 0 0 0 0 0 0 0 1 0"/>
<feBlend mode="normal" in2="effect1_innerShadow_120_1086" result="effect2_innerShadow_120_1086"/>
</filter>
<filter id="filter3_ii_120_1086" x="109.201" y="134.468" width="34.7371" height="35.737" filterUnits="userSpaceOnUse" color-interpolation-filters="sRGB">
<feFlood flood-opacity="0" result="BackgroundImageFix"/>
<feBlend mode="normal" in="SourceGraphic" in2="BackgroundImageFix" result="shape"/>
<feColorMatrix in="SourceAlpha" type="matrix" values="0 0 0 0 0 0 0 0 0 0 0 0 0 0 0 0 0 0 127 0" result="hardAlpha"/>
<feOffset dx="-3" dy="2"/>
<feGaussianBlur stdDeviation="4"/>
<feComposite in2="hardAlpha" operator="arithmetic" k2="-1" k3="1"/>
<feColorMatrix type="matrix" values="0 0 0 0 1 0 0 0 0 1 0 0 0 0 1 0 0 0 0.2 0"/>
<feBlend mode="normal" in2="shape" result="effect1_innerShadow_120_1086"/>
<feColorMatrix in="SourceAlpha" type="matrix" values="0 0 0 0 0 0 0 0 0 0 0 0 0 0 0 0 0 0 127 0" result="hardAlpha"/>
<feOffset dx="2" dy="-8"/>
<feGaussianBlur stdDeviation="2"/>
<feComposite in2="hardAlpha" operator="arithmetic" k2="-1" k3="1"/>
<feColorMatrix type="matrix" values="0 0 0 0 0 0 0 0 0 0 0 0 0 0 0 0 0 0 1 0"/>
<feBlend mode="normal" in2="effect1_innerShadow_120_1086" result="effect2_innerShadow_120_1086"/>
</filter>
<filter id="filter4_ii_120_1086" x="142.237" y="77.2481" width="34.7371" height="35.7371" filterUnits="userSpaceOnUse" color-interpolation-filters="sRGB">
<feFlood flood-opacity="0" result="BackgroundImageFix"/>
<feBlend mode="normal" in="SourceGraphic" in2="BackgroundImageFix" result="shape"/>
<feColorMatrix in="SourceAlpha" type="matrix" values="0 0 0 0 0 0 0 0 0 0 0 0 0 0 0 0 0 0 127 0" result="hardAlpha"/>
<feOffset dx="-3" dy="2"/>
<feGaussianBlur stdDeviation="4"/>
<feComposite in2="hardAlpha" operator="arithmetic" k2="-1" k3="1"/>
<feColorMatrix type="matrix" values="0 0 0 0 1 0 0 0 0 1 0 0 0 0 1 0 0 0 0.2 0"/>
<feBlend mode="normal" in2="shape" result="effect1_innerShadow_120_1086"/>
<feColorMatrix in="SourceAlpha" type="matrix" values="0 0 0 0 0 0 0 0 0 0 0 0 0 0 0 0 0 0 127 0" result="hardAlpha"/>
<feOffset dx="2" dy="-8"/>
<feGaussianBlur stdDeviation="2"/>
<feComposite in2="hardAlpha" operator="arithmetic" k2="-1" k3="1"/>
<feColorMatrix type="matrix" values="0 0 0 0 0 0 0 0 0 0 0 0 0 0 0 0 0 0 1 0"/>
<feBlend mode="normal" in2="effect1_innerShadow_120_1086" result="effect2_innerShadow_120_1086"/>
</filter>
<filter id="filter5_ii_120_1086" x="85.0171" y="44.2124" width="34.7371" height="35.7371" filterUnits="userSpaceOnUse" color-interpolation-filters="sRGB">
<feFlood flood-opacity="0" result="BackgroundImageFix"/>
<feBlend mode="normal" in="SourceGraphic" in2="BackgroundImageFix" result="shape"/>
<feColorMatrix in="SourceAlpha" type="matrix" values="0 0 0 0 0 0 0 0 0 0 0 0 0 0 0 0 0 0 127 0" result="hardAlpha"/>
<feOffset dx="-3" dy="2"/>
<feGaussianBlur stdDeviation="4"/>
<feComposite in2="hardAlpha" operator="arithmetic" k2="-1" k3="1"/>
<feColorMatrix type="matrix" values="0 0 0 0 1 0 0 0 0 1 0 0 0 0 1 0 0 0 0.2 0"/>
<feBlend mode="normal" in2="shape" result="effect1_innerShadow_120_1086"/>
<feColorMatrix in="SourceAlpha" type="matrix" values="0 0 0 0 0 0 0 0 0 0 0 0 0 0 0 0 0 0 127 0" result="hardAlpha"/>
<feOffset dx="2" dy="-8"/>
<feGaussianBlur stdDeviation="2"/>
<feComposite in2="hardAlpha" operator="arithmetic" k2="-1" k3="1"/>
<feColorMatrix type="matrix" values="0 0 0 0 0 0 0 0 0 0 0 0 0 0 0 0 0 0 1 0"/>
<feBlend mode="normal" in2="effect1_innerShadow_120_1086" result="effect2_innerShadow_120_1086"/>
</filter>
<filter id="filter6_ii_120_1086" x="68.4993" y="72.8221" width="34.7371" height="35.7371" filterUnits="userSpaceOnUse" color-interpolation-filters="sRGB">
<feFlood flood-opacity="0" result="BackgroundImageFix"/>
<feBlend mode="normal" in="SourceGraphic" in2="BackgroundImageFix" result="shape"/>
<feColorMatrix in="SourceAlpha" type="matrix" values="0 0 0 0 0 0 0 0 0 0 0 0 0 0 0 0 0 0 127 0" result="hardAlpha"/>
<feOffset dx="-3" dy="2"/>
<feGaussianBlur stdDeviation="4"/>
<feComposite in2="hardAlpha" operator="arithmetic" k2="-1" k3="1"/>
<feColorMatrix type="matrix" values="0 0 0 0 1 0 0 0 0 1 0 0 0 0 1 0 0 0 0.2 0"/>
<feBlend mode="normal" in2="shape" result="effect1_innerShadow_120_1086"/>
<feColorMatrix in="SourceAlpha" type="matrix" values="0 0 0 0 0 0 0 0 0 0 0 0 0 0 0 0 0 0 127 0" result="hardAlpha"/>
<feOffset dx="2" dy="-8"/>
<feGaussianBlur stdDeviation="2"/>
<feComposite in2="hardAlpha" operator="arithmetic" k2="-1" k3="1"/>
<feColorMatrix type="matrix" values="0 0 0 0 0 0 0 0 0 0 0 0 0 0 0 0 0 0 1 0"/>
<feBlend mode="normal" in2="effect1_innerShadow_120_1086" result="effect2_innerShadow_120_1086"/>
</filter>
<filter id="filter7_ii_120_1086" x="125.719" y="105.858" width="34.7371" height="35.737" filterUnits="userSpaceOnUse" color-interpolation-filters="sRGB">
<feFlood flood-opacity="0" result="BackgroundImageFix"/>
<feBlend mode="normal" in="SourceGraphic" in2="BackgroundImageFix" result="shape"/>
<feColorMatrix in="SourceAlpha" type="matrix" values="0 0 0 0 0 0 0 0 0 0 0 0 0 0 0 0 0 0 127 0" result="hardAlpha"/>
<feOffset dx="-3" dy="2"/>
<feGaussianBlur stdDeviation="4"/>
<feComposite in2="hardAlpha" operator="arithmetic" k2="-1" k3="1"/>
<feColorMatrix type="matrix" values="0 0 0 0 1 0 0 0 0 1 0 0 0 0 1 0 0 0 0.2 0"/>
<feBlend mode="normal" in2="shape" result="effect1_innerShadow_120_1086"/>
<feColorMatrix in="SourceAlpha" type="matrix" values="0 0 0 0 0 0 0 0 0 0 0 0 0 0 0 0 0 0 127 0" result="hardAlpha"/>
<feOffset dx="2" dy="-8"/>
<feGaussianBlur stdDeviation="2"/>
<feComposite in2="hardAlpha" operator="arithmetic" k2="-1" k3="1"/>
<feColorMatrix type="matrix" values="0 0 0 0 0 0 0 0 0 0 0 0 0 0 0 0 0 0 1 0"/>
<feBlend mode="normal" in2="effect1_innerShadow_120_1086" result="effect2_innerShadow_120_1086"/>
</filter>
<linearGradient id="paint0_linear_120_1086" x1="186.142" y1="69.1883" x2="23.7857" y2="135.666" gradientUnits="userSpaceOnUse">
<stop/>
<stop offset="1" stop-opacity="0"/>
</linearGradient>
<radialGradient id="paint1_radial_120_1086" cx="0" cy="0" r="1" gradientUnits="userSpaceOnUse" gradientTransform="translate(73.5665 113.863) rotate(120) scale(20.6473)">
<stop/>
<stop offset="0.572917" stop-color="#464646"/>
</radialGradient>
<radialGradient id="paint2_radial_120_1086" cx="0" cy="0" r="1" gradientUnits="userSpaceOnUse" gradientTransform="translate(130.786 146.899) rotate(120) scale(20.6473)">
<stop/>
<stop offset="0.572917" stop-color="#464646"/>
</radialGradient>
<radialGradient id="paint3_radial_120_1086" cx="0" cy="0" r="1" gradientUnits="userSpaceOnUse" gradientTransform="translate(163.822 89.6794) rotate(120) scale(20.6473)">
<stop/>
<stop offset="0.572917" stop-color="#464646"/>
</radialGradient>
<radialGradient id="paint4_radial_120_1086" cx="0" cy="0" r="1" gradientUnits="userSpaceOnUse" gradientTransform="translate(106.602 56.6437) rotate(120) scale(20.6473)">
<stop/>
<stop offset="0.572917" stop-color="#464646"/>
</radialGradient>
<radialGradient id="paint5_radial_120_1086" cx="0" cy="0" r="1" gradientUnits="userSpaceOnUse" gradientTransform="translate(90.0843 85.2535) rotate(120) scale(20.6473)">
<stop/>
<stop offset="0.572917" stop-color="#464646"/>
</radialGradient>
<radialGradient id="paint6_radial_120_1086" cx="0" cy="0" r="1" gradientUnits="userSpaceOnUse" gradientTransform="translate(147.304 118.289) rotate(120) scale(20.6473)">
<stop/>
<stop offset="0.572917" stop-color="#464646"/>
</radialGradient>
<clipPath id="clip0_120_1086">
<rect width="185" height="185" fill="white" transform="translate(78.6426 -13.8573) rotate(30)"/>
</clipPath>
</defs>
</svg>
