<svg width="199" height="199" viewBox="0 0 199 199" fill="none" xmlns="http://www.w3.org/2000/svg">
<g id="Frame" clip-path="url(#clip0_120_724)">
<g id="Group" filter="url(#filter0_diii_120_724)">
<path id="Vector" d="M149.417 8.25104L37.3693 16.0862C22.8088 17.1044 11.8305 29.7334 12.8487 44.2939L20.6838 156.342C21.702 170.902 34.3311 181.881 48.8916 180.862L160.939 173.027C175.5 172.009 186.478 159.38 185.46 144.819L177.625 32.7717C176.607 18.2111 163.978 7.23287 149.417 8.25104Z" fill="#EEEEEE"/>
</g>
<g id="Group_2" filter="url(#filter1_i_120_724)">
<path id="Vector_2" d="M130.566 22.8158L58.0644 27.8856C39.8637 29.1583 26.1409 44.9446 27.4136 63.1453L32.4834 135.647C33.7561 153.848 49.5424 167.57 67.7431 166.298L140.245 161.228C158.445 159.955 172.168 144.169 170.895 125.968L165.826 53.4666C164.553 35.2659 148.767 21.5431 130.566 22.8158Z" fill="#F0F0F0"/>
<path id="Vector_3" d="M130.566 22.8158L58.0644 27.8856C39.8637 29.1583 26.1409 44.9446 27.4136 63.1453L32.4834 135.647C33.7561 153.848 49.5424 167.57 67.7431 166.298L140.245 161.228C158.445 159.955 172.168 144.169 170.895 125.968L165.826 53.4666C164.553 35.2659 148.767 21.5431 130.566 22.8158Z" fill="url(#paint0_linear_120_724)" fill-opacity="0.05"/>
</g>
<g id="Group_3" opacity="0.9" filter="url(#filter2_ii_120_724)">
<path id="Vector_4" d="M55.3214 130.738C54.8123 123.458 60.3014 117.143 67.5818 116.634C74.8621 116.125 81.1765 121.614 81.6856 128.895C82.1947 136.175 76.7056 142.489 69.4253 142.999C62.145 143.508 55.8306 138.019 55.3214 130.738Z" fill="#222222"/>
<path id="Vector_5" d="M55.3214 130.738C54.8123 123.458 60.3014 117.143 67.5818 116.634C74.8621 116.125 81.1765 121.614 81.6856 128.895C82.1947 136.175 76.7056 142.489 69.4253 142.999C62.145 143.508 55.8306 138.019 55.3214 130.738Z" fill="url(#paint1_radial_120_724)" fill-opacity="0.3"/>
<path id="Vector_6" d="M69.3101 141.351C62.9399 141.796 57.4147 136.993 56.9692 130.623L53.6737 130.853C54.2464 139.044 61.3503 145.219 69.5406 144.646L69.3101 141.351ZM80.0379 129.01C80.4834 135.38 75.6804 140.905 69.3101 141.351L69.5406 144.646C77.7309 144.074 83.9062 136.97 83.3334 128.779L80.0379 129.01ZM67.697 118.282C74.0673 117.837 79.5925 122.64 80.0379 129.01L83.3334 128.779C82.7607 120.589 75.6569 114.414 67.4666 114.987L67.697 118.282ZM67.4666 114.987C59.2763 115.559 53.101 122.663 53.6737 130.853L56.9692 130.623C56.5238 124.253 61.3268 118.728 67.697 118.282L67.4666 114.987Z" fill="black"/>
</g>
<g id="Group_4" opacity="0.9" filter="url(#filter3_ii_120_724)">
<path id="Vector_7" d="M121.232 126.129C120.723 118.849 126.212 112.535 133.492 112.025C140.773 111.516 147.087 117.005 147.596 124.286C148.105 131.566 142.617 137.88 135.336 138.39C128.055 138.899 121.741 133.41 121.232 126.129Z" fill="#222222"/>
<path id="Vector_8" d="M121.232 126.129C120.723 118.849 126.212 112.535 133.492 112.025C140.773 111.516 147.087 117.005 147.596 124.286C148.105 131.566 142.617 137.88 135.336 138.39C128.055 138.899 121.741 133.41 121.232 126.129Z" fill="url(#paint2_radial_120_724)" fill-opacity="0.3"/>
<path id="Vector_9" d="M135.221 136.742C128.851 137.187 123.325 132.384 122.88 126.014L119.584 126.245C120.157 134.435 127.261 140.61 135.451 140.037L135.221 136.742ZM145.949 124.401C146.394 130.771 141.591 136.296 135.221 136.742L135.451 140.037C143.641 139.465 149.817 132.361 149.244 124.17L145.949 124.401ZM133.608 113.673C139.978 113.228 145.503 118.031 145.949 124.401L149.244 124.17C148.671 115.98 141.567 109.805 133.377 110.378L133.608 113.673ZM133.377 110.378C125.187 110.95 119.012 118.054 119.584 126.245L122.88 126.014C122.434 119.644 127.237 114.119 133.608 113.673L133.377 110.378Z" fill="black"/>
</g>
<g id="Group_5" opacity="0.9" filter="url(#filter4_ii_120_724)">
<path id="Vector_10" d="M116.623 60.2188C116.114 52.9385 121.603 46.624 128.883 46.1149C136.164 45.6058 142.478 51.0949 142.987 58.3752C143.496 65.6556 138.007 71.97 130.727 72.4791C123.446 72.9882 117.132 67.4991 116.623 60.2188Z" fill="#222222"/>
<path id="Vector_11" d="M116.623 60.2188C116.114 52.9385 121.603 46.624 128.883 46.1149C136.164 45.6058 142.478 51.0949 142.987 58.3752C143.496 65.6556 138.007 71.97 130.727 72.4791C123.446 72.9882 117.132 67.4991 116.623 60.2188Z" fill="url(#paint3_radial_120_724)" fill-opacity="0.3"/>
<path id="Vector_12" d="M130.612 70.8314C124.241 71.2768 118.716 66.4738 118.271 60.1036L114.975 60.334C115.548 68.5243 122.652 74.6996 130.842 74.1269L130.612 70.8314ZM141.339 58.4905C141.785 64.8607 136.982 70.3859 130.612 70.8314L130.842 74.1269C139.032 73.5542 145.208 66.4503 144.635 58.26L141.339 58.4905ZM128.999 47.7627C135.369 47.3172 140.894 52.1202 141.339 58.4905L144.635 58.26C144.062 50.0697 136.958 43.8944 128.768 44.4672L128.999 47.7627ZM128.768 44.4672C120.578 45.0399 114.403 52.1437 114.975 60.334L118.271 60.1036C117.825 53.7333 122.628 48.2081 128.999 47.7627L128.768 44.4672Z" fill="black"/>
</g>
<g id="Group_6" opacity="0.9" filter="url(#filter5_ii_120_724)">
<path id="Vector_13" d="M50.7126 64.8277C50.2035 57.5474 55.6926 51.2329 62.9729 50.7238C70.2532 50.2147 76.5677 55.7038 77.0767 62.9841C77.5858 70.2645 72.0967 76.5789 64.8164 77.088C57.5361 77.5971 51.2216 72.108 50.7126 64.8277Z" fill="#222222"/>
<path id="Vector_14" d="M50.7126 64.8277C50.2035 57.5474 55.6926 51.2329 62.9729 50.7238C70.2532 50.2147 76.5677 55.7038 77.0767 62.9841C77.5858 70.2645 72.0967 76.5789 64.8164 77.088C57.5361 77.5971 51.2216 72.108 50.7126 64.8277Z" fill="url(#paint4_radial_120_724)" fill-opacity="0.3"/>
<path id="Vector_15" d="M64.7013 75.4403C58.331 75.8857 52.8058 71.0827 52.3604 64.7125L49.0648 64.9429C49.6376 73.1332 56.7414 79.3085 64.9317 78.7358L64.7013 75.4403ZM75.429 63.0994C75.8745 69.4696 71.0715 74.9948 64.7013 75.4403L64.9317 78.7358C73.122 78.1631 79.2973 71.0592 78.7246 62.8689L75.429 63.0994ZM63.0881 52.3716C69.4584 51.9261 74.9836 56.7291 75.429 63.0994L78.7246 62.8689C78.1518 54.6786 71.048 48.5033 62.8577 49.0761L63.0881 52.3716ZM62.8577 49.0761C54.6674 49.6488 48.4921 56.7526 49.0648 64.9429L52.3604 64.7125C51.9149 58.3422 56.7179 52.817 63.0881 52.3716L62.8577 49.0761Z" fill="black"/>
</g>
<g id="Group_7" opacity="0.9" filter="url(#filter6_ii_120_724)">
<path id="Vector_16" d="M85.9723 95.4785C85.4632 88.1982 90.952 81.8837 98.2326 81.3746C105.513 80.8655 111.827 86.3546 112.337 93.6349C112.846 100.916 107.357 107.23 100.076 107.739C92.7956 108.248 86.4814 102.759 85.9723 95.4785Z" fill="#222222"/>
<path id="Vector_17" d="M85.9723 95.4785C85.4632 88.1982 90.952 81.8837 98.2326 81.3746C105.513 80.8655 111.827 86.3546 112.337 93.6349C112.846 100.916 107.357 107.23 100.076 107.739C92.7956 108.248 86.4814 102.759 85.9723 95.4785Z" fill="url(#paint5_radial_120_724)" fill-opacity="0.3"/>
<path id="Vector_18" d="M99.961 106.091C93.5908 106.536 88.0656 101.734 87.6201 95.3633L84.3246 95.5937C84.8973 103.784 92.0013 109.959 100.191 109.387L99.961 106.091ZM110.689 93.7502C111.134 100.12 106.331 105.646 99.961 106.091L100.191 109.387C108.382 108.814 114.557 101.71 113.984 93.5197L110.689 93.7502ZM98.3479 83.0224C104.718 82.5769 110.243 87.3799 110.689 93.7502L113.984 93.5197C113.412 85.3294 106.308 79.1541 98.1175 79.7269L98.3479 83.0224ZM98.1175 79.7269C89.9273 80.2996 83.7519 87.4034 84.3246 95.5937L87.6201 95.3633C87.1747 88.993 91.9777 83.4678 98.3479 83.0224L98.1175 79.7269Z" fill="black"/>
</g>
</g>
<defs>
<filter id="filter0_diii_120_724" x="0.783203" y="-15.8144" width="196.742" height="214.742" filterUnits="userSpaceOnUse" color-interpolation-filters="sRGB">
<feFlood flood-opacity="0" result="BackgroundImageFix"/>
<feColorMatrix in="SourceAlpha" type="matrix" values="0 0 0 0 0 0 0 0 0 0 0 0 0 0 0 0 0 0 127 0" result="hardAlpha"/>
<feOffset dy="6"/>
<feGaussianBlur stdDeviation="6"/>
<feComposite in2="hardAlpha" operator="out"/>
<feColorMatrix type="matrix" values="0 0 0 0 0 0 0 0 0 0 0 0 0 0 0 0 0 0 0.1 0"/>
<feBlend mode="normal" in2="BackgroundImageFix" result="effect1_dropShadow_120_724"/>
<feBlend mode="normal" in="SourceGraphic" in2="effect1_dropShadow_120_724" result="shape"/>
<feColorMatrix in="SourceAlpha" type="matrix" values="0 0 0 0 0 0 0 0 0 0 0 0 0 0 0 0 0 0 127 0" result="hardAlpha"/>
<feOffset dx="8" dy="8"/>
<feGaussianBlur stdDeviation="16"/>
<feComposite in2="hardAlpha" operator="arithmetic" k2="-1" k3="1"/>
<feColorMatrix type="matrix" values="0 0 0 0 0 0 0 0 0 0 0 0 0 0 0 0 0 0 0.05 0"/>
<feBlend mode="normal" in2="shape" result="effect2_innerShadow_120_724"/>
<feColorMatrix in="SourceAlpha" type="matrix" values="0 0 0 0 0 0 0 0 0 0 0 0 0 0 0 0 0 0 127 0" result="hardAlpha"/>
<feOffset dx="-8" dy="8"/>
<feGaussianBlur stdDeviation="6"/>
<feComposite in2="hardAlpha" operator="arithmetic" k2="-1" k3="1"/>
<feColorMatrix type="matrix" values="0 0 0 0 1 0 0 0 0 1 0 0 0 0 1 0 0 0 1 0"/>
<feBlend mode="normal" in2="effect2_innerShadow_120_724" result="effect3_innerShadow_120_724"/>
<feColorMatrix in="SourceAlpha" type="matrix" values="0 0 0 0 0 0 0 0 0 0 0 0 0 0 0 0 0 0 127 0" result="hardAlpha"/>
<feOffset dx="-8" dy="-24"/>
<feGaussianBlur stdDeviation="16"/>
<feComposite in2="hardAlpha" operator="arithmetic" k2="-1" k3="1"/>
<feColorMatrix type="matrix" values="0 0 0 0 0 0 0 0 0 0 0 0 0 0 0 0 0 0 0.1 0"/>
<feBlend mode="normal" in2="effect3_innerShadow_120_724" result="effect4_innerShadow_120_724"/>
</filter>
<filter id="filter1_i_120_724" x="27.3318" y="10.734" width="167.646" height="155.645" filterUnits="userSpaceOnUse" color-interpolation-filters="sRGB">
<feFlood flood-opacity="0" result="BackgroundImageFix"/>
<feBlend mode="normal" in="SourceGraphic" in2="BackgroundImageFix" result="shape"/>
<feColorMatrix in="SourceAlpha" type="matrix" values="0 0 0 0 0 0 0 0 0 0 0 0 0 0 0 0 0 0 127 0" result="hardAlpha"/>
<feOffset dx="24" dy="-12"/>
<feGaussianBlur stdDeviation="12"/>
<feComposite in2="hardAlpha" operator="arithmetic" k2="-1" k3="1"/>
<feColorMatrix type="matrix" values="0 0 0 0 1 0 0 0 0 1 0 0 0 0 1 0 0 0 0.3 0"/>
<feBlend mode="normal" in2="shape" result="effect1_innerShadow_120_724"/>
</filter>
<filter id="filter2_ii_120_724" x="50.637" y="110.95" width="34.7334" height="35.7334" filterUnits="userSpaceOnUse" color-interpolation-filters="sRGB">
<feFlood flood-opacity="0" result="BackgroundImageFix"/>
<feBlend mode="normal" in="SourceGraphic" in2="BackgroundImageFix" result="shape"/>
<feColorMatrix in="SourceAlpha" type="matrix" values="0 0 0 0 0 0 0 0 0 0 0 0 0 0 0 0 0 0 127 0" result="hardAlpha"/>
<feOffset dx="-3" dy="2"/>
<feGaussianBlur stdDeviation="4"/>
<feComposite in2="hardAlpha" operator="arithmetic" k2="-1" k3="1"/>
<feColorMatrix type="matrix" values="0 0 0 0 1 0 0 0 0 1 0 0 0 0 1 0 0 0 0.2 0"/>
<feBlend mode="normal" in2="shape" result="effect1_innerShadow_120_724"/>
<feColorMatrix in="SourceAlpha" type="matrix" values="0 0 0 0 0 0 0 0 0 0 0 0 0 0 0 0 0 0 127 0" result="hardAlpha"/>
<feOffset dx="2" dy="-8"/>
<feGaussianBlur stdDeviation="2"/>
<feComposite in2="hardAlpha" operator="arithmetic" k2="-1" k3="1"/>
<feColorMatrix type="matrix" values="0 0 0 0 0 0 0 0 0 0 0 0 0 0 0 0 0 0 1 0"/>
<feBlend mode="normal" in2="effect1_innerShadow_120_724" result="effect2_innerShadow_120_724"/>
</filter>
<filter id="filter3_ii_120_724" x="116.548" y="106.341" width="34.7334" height="35.7334" filterUnits="userSpaceOnUse" color-interpolation-filters="sRGB">
<feFlood flood-opacity="0" result="BackgroundImageFix"/>
<feBlend mode="normal" in="SourceGraphic" in2="BackgroundImageFix" result="shape"/>
<feColorMatrix in="SourceAlpha" type="matrix" values="0 0 0 0 0 0 0 0 0 0 0 0 0 0 0 0 0 0 127 0" result="hardAlpha"/>
<feOffset dx="-3" dy="2"/>
<feGaussianBlur stdDeviation="4"/>
<feComposite in2="hardAlpha" operator="arithmetic" k2="-1" k3="1"/>
<feColorMatrix type="matrix" values="0 0 0 0 1 0 0 0 0 1 0 0 0 0 1 0 0 0 0.2 0"/>
<feBlend mode="normal" in2="shape" result="effect1_innerShadow_120_724"/>
<feColorMatrix in="SourceAlpha" type="matrix" values="0 0 0 0 0 0 0 0 0 0 0 0 0 0 0 0 0 0 127 0" result="hardAlpha"/>
<feOffset dx="2" dy="-8"/>
<feGaussianBlur stdDeviation="2"/>
<feComposite in2="hardAlpha" operator="arithmetic" k2="-1" k3="1"/>
<feColorMatrix type="matrix" values="0 0 0 0 0 0 0 0 0 0 0 0 0 0 0 0 0 0 1 0"/>
<feBlend mode="normal" in2="effect1_innerShadow_120_724" result="effect2_innerShadow_120_724"/>
</filter>
<filter id="filter4_ii_120_724" x="111.938" y="40.4303" width="34.7334" height="35.7334" filterUnits="userSpaceOnUse" color-interpolation-filters="sRGB">
<feFlood flood-opacity="0" result="BackgroundImageFix"/>
<feBlend mode="normal" in="SourceGraphic" in2="BackgroundImageFix" result="shape"/>
<feColorMatrix in="SourceAlpha" type="matrix" values="0 0 0 0 0 0 0 0 0 0 0 0 0 0 0 0 0 0 127 0" result="hardAlpha"/>
<feOffset dx="-3" dy="2"/>
<feGaussianBlur stdDeviation="4"/>
<feComposite in2="hardAlpha" operator="arithmetic" k2="-1" k3="1"/>
<feColorMatrix type="matrix" values="0 0 0 0 1 0 0 0 0 1 0 0 0 0 1 0 0 0 0.2 0"/>
<feBlend mode="normal" in2="shape" result="effect1_innerShadow_120_724"/>
<feColorMatrix in="SourceAlpha" type="matrix" values="0 0 0 0 0 0 0 0 0 0 0 0 0 0 0 0 0 0 127 0" result="hardAlpha"/>
<feOffset dx="2" dy="-8"/>
<feGaussianBlur stdDeviation="2"/>
<feComposite in2="hardAlpha" operator="arithmetic" k2="-1" k3="1"/>
<feColorMatrix type="matrix" values="0 0 0 0 0 0 0 0 0 0 0 0 0 0 0 0 0 0 1 0"/>
<feBlend mode="normal" in2="effect1_innerShadow_120_724" result="effect2_innerShadow_120_724"/>
</filter>
<filter id="filter5_ii_120_724" x="46.0281" y="45.0392" width="34.7334" height="35.7334" filterUnits="userSpaceOnUse" color-interpolation-filters="sRGB">
<feFlood flood-opacity="0" result="BackgroundImageFix"/>
<feBlend mode="normal" in="SourceGraphic" in2="BackgroundImageFix" result="shape"/>
<feColorMatrix in="SourceAlpha" type="matrix" values="0 0 0 0 0 0 0 0 0 0 0 0 0 0 0 0 0 0 127 0" result="hardAlpha"/>
<feOffset dx="-3" dy="2"/>
<feGaussianBlur stdDeviation="4"/>
<feComposite in2="hardAlpha" operator="arithmetic" k2="-1" k3="1"/>
<feColorMatrix type="matrix" values="0 0 0 0 1 0 0 0 0 1 0 0 0 0 1 0 0 0 0.2 0"/>
<feBlend mode="normal" in2="shape" result="effect1_innerShadow_120_724"/>
<feColorMatrix in="SourceAlpha" type="matrix" values="0 0 0 0 0 0 0 0 0 0 0 0 0 0 0 0 0 0 127 0" result="hardAlpha"/>
<feOffset dx="2" dy="-8"/>
<feGaussianBlur stdDeviation="2"/>
<feComposite in2="hardAlpha" operator="arithmetic" k2="-1" k3="1"/>
<feColorMatrix type="matrix" values="0 0 0 0 0 0 0 0 0 0 0 0 0 0 0 0 0 0 1 0"/>
<feBlend mode="normal" in2="effect1_innerShadow_120_724" result="effect2_innerShadow_120_724"/>
</filter>
<filter id="filter6_ii_120_724" x="81.2878" y="75.69" width="34.7334" height="35.7334" filterUnits="userSpaceOnUse" color-interpolation-filters="sRGB">
<feFlood flood-opacity="0" result="BackgroundImageFix"/>
<feBlend mode="normal" in="SourceGraphic" in2="BackgroundImageFix" result="shape"/>
<feColorMatrix in="SourceAlpha" type="matrix" values="0 0 0 0 0 0 0 0 0 0 0 0 0 0 0 0 0 0 127 0" result="hardAlpha"/>
<feOffset dx="-3" dy="2"/>
<feGaussianBlur stdDeviation="4"/>
<feComposite in2="hardAlpha" operator="arithmetic" k2="-1" k3="1"/>
<feColorMatrix type="matrix" values="0 0 0 0 1 0 0 0 0 1 0 0 0 0 1 0 0 0 0.2 0"/>
<feBlend mode="normal" in2="shape" result="effect1_innerShadow_120_724"/>
<feColorMatrix in="SourceAlpha" type="matrix" values="0 0 0 0 0 0 0 0 0 0 0 0 0 0 0 0 0 0 127 0" result="hardAlpha"/>
<feOffset dx="2" dy="-8"/>
<feGaussianBlur stdDeviation="2"/>
<feComposite in2="hardAlpha" operator="arithmetic" k2="-1" k3="1"/>
<feColorMatrix type="matrix" values="0 0 0 0 0 0 0 0 0 0 0 0 0 0 0 0 0 0 1 0"/>
<feBlend mode="normal" in2="effect1_innerShadow_120_724" result="effect2_innerShadow_120_724"/>
</filter>
<linearGradient id="paint0_linear_120_724" x1="136.333" y1="22.4125" x2="38.9072" y2="168.314" gradientUnits="userSpaceOnUse">
<stop/>
<stop offset="1" stop-opacity="0"/>
</linearGradient>
<radialGradient id="paint1_radial_120_724" cx="0" cy="0" r="1" gradientUnits="userSpaceOnUse" gradientTransform="translate(67.985 122.401) rotate(86) scale(20.6473)">
<stop/>
<stop offset="0.572917" stop-color="#464646"/>
</radialGradient>
<radialGradient id="paint2_radial_120_724" cx="0" cy="0" r="1" gradientUnits="userSpaceOnUse" gradientTransform="translate(133.896 117.793) rotate(86) scale(20.6473)">
<stop/>
<stop offset="0.572917" stop-color="#464646"/>
</radialGradient>
<radialGradient id="paint3_radial_120_724" cx="0" cy="0" r="1" gradientUnits="userSpaceOnUse" gradientTransform="translate(129.287 51.8821) rotate(86) scale(20.6473)">
<stop/>
<stop offset="0.572917" stop-color="#464646"/>
</radialGradient>
<radialGradient id="paint4_radial_120_724" cx="0" cy="0" r="1" gradientUnits="userSpaceOnUse" gradientTransform="translate(63.3761 56.491) rotate(86) scale(20.6473)">
<stop/>
<stop offset="0.572917" stop-color="#464646"/>
</radialGradient>
<radialGradient id="paint5_radial_120_724" cx="0" cy="0" r="1" gradientUnits="userSpaceOnUse" gradientTransform="translate(98.6359 87.1418) rotate(86) scale(20.6473)">
<stop/>
<stop offset="0.572917" stop-color="#464646"/>
</radialGradient>
<clipPath id="clip0_120_724">
<rect width="185" height="185" fill="white" transform="translate(0.772949 13.6778) rotate(-4)"/>
</clipPath>
</defs>
</svg>
