<svg width="225" height="225" viewBox="0 0 225 225" fill="none" xmlns="http://www.w3.org/2000/svg">
<g id="Frame" clip-path="url(#clip0_120_1186)">
<g id="Group" filter="url(#filter0_diii_120_1186)">
<path id="Vector" d="M195.216 49.443L89.6682 11.0269C75.9524 6.03469 60.7866 13.1066 55.7944 26.8225L17.3782 132.37C12.386 146.086 19.458 161.252 33.1738 166.244L138.721 204.66C152.437 209.652 167.603 202.58 172.595 188.864L211.011 83.3169C216.004 69.601 208.932 54.4352 195.216 49.443Z" fill="#EEEEEE"/>
</g>
<g id="Group_2" filter="url(#filter1_i_120_1186)">
<path id="Vector_2" d="M172.07 55.0811L103.775 30.2235C86.6301 23.9833 67.6728 32.8233 61.4326 49.9681L36.575 118.264C30.3348 135.408 39.1748 154.366 56.3196 160.606L124.615 185.463C141.76 191.704 160.717 182.864 166.957 165.719L191.815 97.4234C198.055 80.2786 189.215 61.3213 172.07 55.0811Z" fill="#F0F0F0"/>
<path id="Vector_3" d="M172.07 55.0811L103.775 30.2235C86.6301 23.9833 67.6728 32.8233 61.4326 49.9681L36.575 118.264C30.3348 135.408 39.1748 154.366 56.3196 160.606L124.615 185.463C141.76 191.704 160.717 182.864 166.957 165.719L191.815 97.4234C198.055 80.2786 189.215 61.3213 172.07 55.0811Z" fill="url(#paint0_linear_120_1186)" fill-opacity="0.05"/>
</g>
<g id="Group_3" opacity="0.9" filter="url(#filter2_ii_120_1186)">
<path id="Vector_4" d="M101.778 103.324C104.274 96.466 111.856 92.9299 118.714 95.4261C125.573 97.9223 129.108 105.505 126.612 112.363C124.116 119.221 116.534 122.757 109.675 120.261C102.817 117.765 99.2814 110.182 101.778 103.324Z" fill="#222222"/>
<path id="Vector_5" d="M101.778 103.324C104.274 96.466 111.856 92.9299 118.714 95.4261C125.573 97.9223 129.108 105.505 126.612 112.363C124.116 119.221 116.534 122.757 109.675 120.261C102.817 117.765 99.2814 110.182 101.778 103.324Z" fill="url(#paint1_radial_120_1186)" fill-opacity="0.3"/>
<path id="Vector_6" d="M110.24 118.709C104.24 116.525 101.146 109.89 103.33 103.889L100.225 102.759C97.4173 110.474 101.395 119.005 109.11 121.813L110.24 118.709ZM125.06 111.798C122.876 117.799 116.241 120.893 110.24 118.709L109.11 121.813C116.825 124.621 125.356 120.643 128.164 112.928L125.06 111.798ZM118.149 96.9783C124.15 99.1624 127.244 105.797 125.06 111.798L128.164 112.928C130.972 105.213 126.994 96.682 119.279 93.874L118.149 96.9783ZM119.279 93.874C111.564 91.0659 103.033 95.0439 100.225 102.759L103.33 103.889C105.514 97.8882 112.149 94.7942 118.149 96.9783L119.279 93.874Z" fill="black"/>
</g>
<g id="Group_4" opacity="0.9" filter="url(#filter3_ii_120_1186)">
<path id="Vector_7" d="M59.4353 123.068C61.9315 116.21 69.5142 112.675 76.3722 115.171C83.2302 117.667 86.7662 125.249 84.27 132.108C81.7738 138.966 74.1911 142.501 67.3331 140.005C60.4751 137.509 56.9391 129.927 59.4353 123.068Z" fill="#222222"/>
<path id="Vector_8" d="M59.4353 123.068C61.9315 116.21 69.5142 112.675 76.3722 115.171C83.2302 117.667 86.7662 125.249 84.27 132.108C81.7738 138.966 74.1911 142.501 67.3331 140.005C60.4751 137.509 56.9391 129.927 59.4353 123.068Z" fill="url(#paint2_radial_120_1186)" fill-opacity="0.3"/>
<path id="Vector_9" d="M67.898 138.453C61.8973 136.269 58.8033 129.634 60.9874 123.633L57.883 122.504C55.075 130.219 59.0529 138.749 66.7681 141.558L67.898 138.453ZM82.7178 131.543C80.5337 137.543 73.8987 140.637 67.898 138.453L66.7681 141.558C74.4832 144.366 83.0141 140.388 85.8221 132.673L82.7178 131.543ZM75.8072 116.723C81.8079 118.907 84.9018 125.542 82.7178 131.543L85.8221 132.673C88.6302 124.957 84.6522 116.427 76.9371 113.618L75.8072 116.723ZM76.9371 113.618C69.2219 110.81 60.6911 114.788 57.883 122.504L60.9874 123.633C63.1714 117.633 69.8065 114.539 75.8072 116.723L76.9371 113.618Z" fill="black"/>
</g>
<g id="Group_5" opacity="0.9" filter="url(#filter4_ii_120_1186)">
<path id="Vector_10" d="M144.12 83.5794C146.616 76.7214 154.199 73.1854 161.057 75.6816C167.915 78.1778 171.451 85.7605 168.955 92.6185C166.458 99.4765 158.876 103.013 152.018 100.516C145.159 98.0201 141.624 90.4374 144.12 83.5794Z" fill="#222222"/>
<path id="Vector_11" d="M144.12 83.5794C146.616 76.7214 154.199 73.1854 161.057 75.6816C167.915 78.1778 171.451 85.7605 168.955 92.6185C166.458 99.4765 158.876 103.013 152.018 100.516C145.159 98.0201 141.624 90.4374 144.12 83.5794Z" fill="url(#paint3_radial_120_1186)" fill-opacity="0.3"/>
<path id="Vector_12" d="M152.583 98.9642C146.582 96.7801 143.488 90.145 145.672 84.1443L142.568 83.0145C139.76 90.7296 143.738 99.2604 151.453 102.068L152.583 98.9642ZM167.402 92.0536C165.218 98.0543 158.583 101.148 152.583 98.9642L151.453 102.068C159.168 104.877 167.699 100.899 170.507 93.1835L167.402 92.0536ZM160.492 77.2338C166.492 79.4178 169.586 86.0529 167.402 92.0536L170.507 93.1835C173.315 85.4683 169.337 76.9375 161.622 74.1294L160.492 77.2338ZM161.622 74.1294C153.907 71.3214 145.376 75.2993 142.568 83.0145L145.672 84.1443C147.856 78.1437 154.491 75.0497 160.492 77.2338L161.622 74.1294Z" fill="black"/>
</g>
</g>
<defs>
<filter id="filter0_diii_120_1186" x="3.7771" y="-14.5742" width="220.835" height="238.835" filterUnits="userSpaceOnUse" color-interpolation-filters="sRGB">
<feFlood flood-opacity="0" result="BackgroundImageFix"/>
<feColorMatrix in="SourceAlpha" type="matrix" values="0 0 0 0 0 0 0 0 0 0 0 0 0 0 0 0 0 0 127 0" result="hardAlpha"/>
<feOffset dy="6"/>
<feGaussianBlur stdDeviation="6"/>
<feComposite in2="hardAlpha" operator="out"/>
<feColorMatrix type="matrix" values="0 0 0 0 0 0 0 0 0 0 0 0 0 0 0 0 0 0 0.1 0"/>
<feBlend mode="normal" in2="BackgroundImageFix" result="effect1_dropShadow_120_1186"/>
<feBlend mode="normal" in="SourceGraphic" in2="effect1_dropShadow_120_1186" result="shape"/>
<feColorMatrix in="SourceAlpha" type="matrix" values="0 0 0 0 0 0 0 0 0 0 0 0 0 0 0 0 0 0 127 0" result="hardAlpha"/>
<feOffset dx="8" dy="8"/>
<feGaussianBlur stdDeviation="16"/>
<feComposite in2="hardAlpha" operator="arithmetic" k2="-1" k3="1"/>
<feColorMatrix type="matrix" values="0 0 0 0 0 0 0 0 0 0 0 0 0 0 0 0 0 0 0.05 0"/>
<feBlend mode="normal" in2="shape" result="effect2_innerShadow_120_1186"/>
<feColorMatrix in="SourceAlpha" type="matrix" values="0 0 0 0 0 0 0 0 0 0 0 0 0 0 0 0 0 0 127 0" result="hardAlpha"/>
<feOffset dx="-8" dy="8"/>
<feGaussianBlur stdDeviation="6"/>
<feComposite in2="hardAlpha" operator="arithmetic" k2="-1" k3="1"/>
<feColorMatrix type="matrix" values="0 0 0 0 1 0 0 0 0 1 0 0 0 0 1 0 0 0 1 0"/>
<feBlend mode="normal" in2="effect2_innerShadow_120_1186" result="effect3_innerShadow_120_1186"/>
<feColorMatrix in="SourceAlpha" type="matrix" values="0 0 0 0 0 0 0 0 0 0 0 0 0 0 0 0 0 0 127 0" result="hardAlpha"/>
<feOffset dx="-8" dy="-24"/>
<feGaussianBlur stdDeviation="16"/>
<feComposite in2="hardAlpha" operator="arithmetic" k2="-1" k3="1"/>
<feColorMatrix type="matrix" values="0 0 0 0 0 0 0 0 0 0 0 0 0 0 0 0 0 0 0.1 0"/>
<feBlend mode="normal" in2="effect3_innerShadow_120_1186" result="effect4_innerShadow_120_1186"/>
</filter>
<filter id="filter1_i_120_1186" x="34.5737" y="16.2223" width="183.242" height="171.242" filterUnits="userSpaceOnUse" color-interpolation-filters="sRGB">
<feFlood flood-opacity="0" result="BackgroundImageFix"/>
<feBlend mode="normal" in="SourceGraphic" in2="BackgroundImageFix" result="shape"/>
<feColorMatrix in="SourceAlpha" type="matrix" values="0 0 0 0 0 0 0 0 0 0 0 0 0 0 0 0 0 0 127 0" result="hardAlpha"/>
<feOffset dx="24" dy="-12"/>
<feGaussianBlur stdDeviation="12"/>
<feComposite in2="hardAlpha" operator="arithmetic" k2="-1" k3="1"/>
<feColorMatrix type="matrix" values="0 0 0 0 1 0 0 0 0 1 0 0 0 0 1 0 0 0 0.3 0"/>
<feBlend mode="normal" in2="shape" result="effect1_innerShadow_120_1186"/>
</filter>
<filter id="filter2_ii_120_1186" x="96.3247" y="88.9734" width="34.7402" height="35.7402" filterUnits="userSpaceOnUse" color-interpolation-filters="sRGB">
<feFlood flood-opacity="0" result="BackgroundImageFix"/>
<feBlend mode="normal" in="SourceGraphic" in2="BackgroundImageFix" result="shape"/>
<feColorMatrix in="SourceAlpha" type="matrix" values="0 0 0 0 0 0 0 0 0 0 0 0 0 0 0 0 0 0 127 0" result="hardAlpha"/>
<feOffset dx="-3" dy="2"/>
<feGaussianBlur stdDeviation="4"/>
<feComposite in2="hardAlpha" operator="arithmetic" k2="-1" k3="1"/>
<feColorMatrix type="matrix" values="0 0 0 0 1 0 0 0 0 1 0 0 0 0 1 0 0 0 0.2 0"/>
<feBlend mode="normal" in2="shape" result="effect1_innerShadow_120_1186"/>
<feColorMatrix in="SourceAlpha" type="matrix" values="0 0 0 0 0 0 0 0 0 0 0 0 0 0 0 0 0 0 127 0" result="hardAlpha"/>
<feOffset dx="2" dy="-8"/>
<feGaussianBlur stdDeviation="2"/>
<feComposite in2="hardAlpha" operator="arithmetic" k2="-1" k3="1"/>
<feColorMatrix type="matrix" values="0 0 0 0 0 0 0 0 0 0 0 0 0 0 0 0 0 0 1 0"/>
<feBlend mode="normal" in2="effect1_innerShadow_120_1186" result="effect2_innerShadow_120_1186"/>
</filter>
<filter id="filter3_ii_120_1186" x="53.9824" y="108.718" width="34.7402" height="35.7402" filterUnits="userSpaceOnUse" color-interpolation-filters="sRGB">
<feFlood flood-opacity="0" result="BackgroundImageFix"/>
<feBlend mode="normal" in="SourceGraphic" in2="BackgroundImageFix" result="shape"/>
<feColorMatrix in="SourceAlpha" type="matrix" values="0 0 0 0 0 0 0 0 0 0 0 0 0 0 0 0 0 0 127 0" result="hardAlpha"/>
<feOffset dx="-3" dy="2"/>
<feGaussianBlur stdDeviation="4"/>
<feComposite in2="hardAlpha" operator="arithmetic" k2="-1" k3="1"/>
<feColorMatrix type="matrix" values="0 0 0 0 1 0 0 0 0 1 0 0 0 0 1 0 0 0 0.2 0"/>
<feBlend mode="normal" in2="shape" result="effect1_innerShadow_120_1186"/>
<feColorMatrix in="SourceAlpha" type="matrix" values="0 0 0 0 0 0 0 0 0 0 0 0 0 0 0 0 0 0 127 0" result="hardAlpha"/>
<feOffset dx="2" dy="-8"/>
<feGaussianBlur stdDeviation="2"/>
<feComposite in2="hardAlpha" operator="arithmetic" k2="-1" k3="1"/>
<feColorMatrix type="matrix" values="0 0 0 0 0 0 0 0 0 0 0 0 0 0 0 0 0 0 1 0"/>
<feBlend mode="normal" in2="effect1_innerShadow_120_1186" result="effect2_innerShadow_120_1186"/>
</filter>
<filter id="filter4_ii_120_1186" x="138.667" y="69.2289" width="34.7402" height="35.7402" filterUnits="userSpaceOnUse" color-interpolation-filters="sRGB">
<feFlood flood-opacity="0" result="BackgroundImageFix"/>
<feBlend mode="normal" in="SourceGraphic" in2="BackgroundImageFix" result="shape"/>
<feColorMatrix in="SourceAlpha" type="matrix" values="0 0 0 0 0 0 0 0 0 0 0 0 0 0 0 0 0 0 127 0" result="hardAlpha"/>
<feOffset dx="-3" dy="2"/>
<feGaussianBlur stdDeviation="4"/>
<feComposite in2="hardAlpha" operator="arithmetic" k2="-1" k3="1"/>
<feColorMatrix type="matrix" values="0 0 0 0 1 0 0 0 0 1 0 0 0 0 1 0 0 0 0.2 0"/>
<feBlend mode="normal" in2="shape" result="effect1_innerShadow_120_1186"/>
<feColorMatrix in="SourceAlpha" type="matrix" values="0 0 0 0 0 0 0 0 0 0 0 0 0 0 0 0 0 0 127 0" result="hardAlpha"/>
<feOffset dx="2" dy="-8"/>
<feGaussianBlur stdDeviation="2"/>
<feComposite in2="hardAlpha" operator="arithmetic" k2="-1" k3="1"/>
<feColorMatrix type="matrix" values="0 0 0 0 0 0 0 0 0 0 0 0 0 0 0 0 0 0 1 0"/>
<feBlend mode="normal" in2="effect1_innerShadow_120_1186" result="effect2_innerShadow_120_1186"/>
</filter>
<linearGradient id="paint0_linear_120_1186" x1="177.503" y1="57.0584" x2="29.1566" y2="150.719" gradientUnits="userSpaceOnUse">
<stop/>
<stop offset="1" stop-opacity="0"/>
</linearGradient>
<radialGradient id="paint1_radial_120_1186" cx="0" cy="0" r="1" gradientUnits="userSpaceOnUse" gradientTransform="translate(116.737 100.859) rotate(110) scale(20.6473)">
<stop/>
<stop offset="0.572917" stop-color="#464646"/>
</radialGradient>
<radialGradient id="paint2_radial_120_1186" cx="0" cy="0" r="1" gradientUnits="userSpaceOnUse" gradientTransform="translate(74.3949 120.603) rotate(110) scale(20.6473)">
<stop/>
<stop offset="0.572917" stop-color="#464646"/>
</radialGradient>
<radialGradient id="paint3_radial_120_1186" cx="0" cy="0" r="1" gradientUnits="userSpaceOnUse" gradientTransform="translate(159.079 81.1142) rotate(110) scale(20.6473)">
<stop/>
<stop offset="0.572917" stop-color="#464646"/>
</radialGradient>
<clipPath id="clip0_120_1186">
<rect width="185" height="185" fill="white" transform="translate(57.2153 -6.05843) rotate(20)"/>
</clipPath>
</defs>
</svg>
