<svg width="225" height="225" viewBox="0 0 225 225" fill="none" xmlns="http://www.w3.org/2000/svg">
<g id="Frame" clip-path="url(#clip0_120_1002)">
<g id="Group" filter="url(#filter0_diii_120_1002)">
<path id="Vector" d="M211.794 81.5363L125.751 9.33749C114.57 -0.0446991 97.8996 1.41373 88.5174 12.595L16.3186 98.6382C6.93639 109.819 8.39483 126.489 19.5761 135.872L105.619 208.07C116.801 217.453 133.471 215.994 142.853 204.813L215.052 118.77C224.434 107.588 222.975 90.9185 211.794 81.5363Z" fill="#EEEEEE"/>
</g>
<g id="Group_2" filter="url(#filter1_i_120_1002)">
<path id="Vector_2" d="M188.116 78.9181L132.441 32.2012C118.465 20.4735 97.6271 22.2965 85.8993 36.2731L39.1824 91.9481C27.4547 105.925 29.2777 126.762 43.2543 138.49L98.9293 185.207C112.906 196.934 133.743 195.111 145.471 181.135L192.188 125.46C203.916 111.483 202.093 90.6458 188.116 78.9181Z" fill="#F0F0F0"/>
<path id="Vector_3" d="M188.116 78.9181L132.441 32.2012C118.465 20.4735 97.6271 22.2965 85.8993 36.2731L39.1824 91.9481C27.4547 105.925 29.2777 126.762 43.2543 138.49L98.9293 185.207C112.906 196.934 133.743 195.111 145.471 181.135L192.188 125.46C203.916 111.483 202.093 90.6458 188.116 78.9181Z" fill="url(#paint0_linear_120_1002)" fill-opacity="0.05"/>
</g>
<g id="Group_3" opacity="0.9" filter="url(#filter2_ii_120_1002)">
<path id="Vector_4" d="M59.0207 104.282C63.712 98.691 72.0467 97.962 77.6374 102.653C83.228 107.344 83.9575 115.679 79.2661 121.27C74.5748 126.861 66.2401 127.59 60.6494 122.899C55.0588 118.207 54.3293 109.873 59.0207 104.282Z" fill="#222222"/>
<path id="Vector_5" d="M59.0207 104.282C63.712 98.691 72.0467 97.962 77.6374 102.653C83.228 107.344 83.9575 115.679 79.2661 121.27C74.5748 126.861 66.2401 127.59 60.6494 122.899C55.0588 118.207 54.3293 109.873 59.0207 104.282Z" fill="url(#paint1_radial_120_1002)" fill-opacity="0.3"/>
<path id="Vector_6" d="M61.7111 121.633C56.8193 117.529 56.1813 110.235 60.286 105.344L57.7553 103.22C52.4779 109.509 53.2982 118.886 59.5877 124.164L61.7111 121.633ZM78.0008 120.208C73.8961 125.1 66.603 125.738 61.7111 121.633L59.5877 124.164C65.8771 129.441 75.254 128.621 80.5315 122.332L78.0008 120.208ZM76.5756 103.918C81.4674 108.023 82.1055 115.316 78.0008 120.208L80.5315 122.332C85.8089 116.042 84.9885 106.665 78.6991 101.388L76.5756 103.918ZM78.6991 101.388C72.4097 96.1103 63.0327 96.9307 57.7553 103.22L60.286 105.344C64.3907 100.452 71.6838 99.8137 76.5756 103.918L78.6991 101.388Z" fill="black"/>
</g>
<g id="Group_4" opacity="0.9" filter="url(#filter3_ii_120_1002)">
<path id="Vector_7" d="M109.634 146.752C114.326 141.161 122.66 140.432 128.251 145.123C133.842 149.814 134.571 158.149 129.88 163.74C125.188 169.331 116.854 170.06 111.263 165.368C105.672 160.677 104.943 152.343 109.634 146.752Z" fill="#222222"/>
<path id="Vector_8" d="M109.634 146.752C114.326 141.161 122.66 140.432 128.251 145.123C133.842 149.814 134.571 158.149 129.88 163.74C125.188 169.331 116.854 170.06 111.263 165.368C105.672 160.677 104.943 152.343 109.634 146.752Z" fill="url(#paint2_radial_120_1002)" fill-opacity="0.3"/>
<path id="Vector_9" d="M112.325 164.103C107.433 159.998 106.795 152.705 110.9 147.814L108.369 145.69C103.091 151.979 103.912 161.356 110.201 166.634L112.325 164.103ZM128.614 162.678C124.51 167.57 117.216 168.208 112.325 164.103L110.201 166.634C116.491 171.911 125.868 171.091 131.145 164.801L128.614 162.678ZM127.189 146.388C132.081 150.493 132.719 157.786 128.614 162.678L131.145 164.801C136.422 158.512 135.602 149.135 129.313 143.858L127.189 146.388ZM129.313 143.858C123.023 138.58 113.646 139.401 108.369 145.69L110.9 147.814C115.004 142.922 122.297 142.284 127.189 146.388L129.313 143.858Z" fill="black"/>
</g>
<g id="Group_5" opacity="0.9" filter="url(#filter4_ii_120_1002)">
<path id="Vector_10" d="M152.104 96.1381C156.795 90.5475 165.13 89.818 170.721 94.5094C176.312 99.2007 177.041 107.535 172.35 113.126C167.659 118.717 159.324 119.446 153.733 114.755C148.142 110.063 147.413 101.729 152.104 96.1381Z" fill="#222222"/>
<path id="Vector_11" d="M152.104 96.1381C156.795 90.5475 165.13 89.818 170.721 94.5094C176.312 99.2007 177.041 107.535 172.35 113.126C167.659 118.717 159.324 119.446 153.733 114.755C148.142 110.063 147.413 101.729 152.104 96.1381Z" fill="url(#paint3_radial_120_1002)" fill-opacity="0.3"/>
<path id="Vector_12" d="M154.795 113.489C149.903 109.385 149.265 102.092 153.369 97.1999L150.839 95.0764C145.561 101.366 146.382 110.743 152.671 116.02L154.795 113.489ZM171.084 112.064C166.98 116.956 159.686 117.594 154.795 113.489L152.671 116.02C158.961 121.298 168.337 120.477 173.615 114.188L171.084 112.064ZM169.659 95.7747C174.551 99.8794 175.189 107.173 171.084 112.064L173.615 114.188C178.892 107.898 178.072 98.5214 171.783 93.244L169.659 95.7747ZM171.783 93.244C165.493 87.9666 156.116 88.7869 150.839 95.0764L153.369 97.1999C157.474 92.3081 164.767 91.67 169.659 95.7747L171.783 93.244Z" fill="black"/>
</g>
<g id="Group_6" opacity="0.9" filter="url(#filter5_ii_120_1002)">
<path id="Vector_13" d="M101.491 53.6682C106.182 48.0776 114.517 47.3483 120.107 52.0395C125.698 56.7306 126.427 65.0655 121.736 70.6562C117.045 76.2468 108.71 76.976 103.119 72.2849C97.5287 67.5938 96.7995 59.2589 101.491 53.6682Z" fill="#222222"/>
<path id="Vector_14" d="M101.491 53.6682C106.182 48.0776 114.517 47.3483 120.107 52.0395C125.698 56.7306 126.427 65.0655 121.736 70.6562C117.045 76.2468 108.71 76.976 103.119 72.2849C97.5287 67.5938 96.7995 59.2589 101.491 53.6682Z" fill="url(#paint4_radial_120_1002)" fill-opacity="0.3"/>
<path id="Vector_15" d="M104.181 71.0196C99.2893 66.9149 98.6512 59.6218 102.756 54.73L100.225 52.6065C94.9478 58.8959 95.7682 68.2728 102.058 73.5503L104.181 71.0196ZM120.471 69.5944C116.366 74.4862 109.073 75.1243 104.181 71.0196L102.058 73.5503C108.347 78.8277 117.724 78.0074 123.001 71.7179L120.471 69.5944ZM119.046 53.3048C123.937 57.4095 124.575 64.7026 120.471 69.5944L123.001 71.7179C128.279 65.4285 127.459 56.0516 121.169 50.7741L119.046 53.3048ZM121.169 50.7741C114.88 45.4967 105.503 46.317 100.225 52.6065L102.756 54.73C106.861 49.8382 114.154 49.2001 119.046 53.3048L121.169 50.7741Z" fill="black"/>
</g>
</g>
<defs>
<filter id="filter0_diii_120_1002" x="-1.86523" y="-20.8462" width="235.101" height="253.1" filterUnits="userSpaceOnUse" color-interpolation-filters="sRGB">
<feFlood flood-opacity="0" result="BackgroundImageFix"/>
<feColorMatrix in="SourceAlpha" type="matrix" values="0 0 0 0 0 0 0 0 0 0 0 0 0 0 0 0 0 0 127 0" result="hardAlpha"/>
<feOffset dy="6"/>
<feGaussianBlur stdDeviation="6"/>
<feComposite in2="hardAlpha" operator="out"/>
<feColorMatrix type="matrix" values="0 0 0 0 0 0 0 0 0 0 0 0 0 0 0 0 0 0 0.1 0"/>
<feBlend mode="normal" in2="BackgroundImageFix" result="effect1_dropShadow_120_1002"/>
<feBlend mode="normal" in="SourceGraphic" in2="effect1_dropShadow_120_1002" result="shape"/>
<feColorMatrix in="SourceAlpha" type="matrix" values="0 0 0 0 0 0 0 0 0 0 0 0 0 0 0 0 0 0 127 0" result="hardAlpha"/>
<feOffset dx="8" dy="8"/>
<feGaussianBlur stdDeviation="16"/>
<feComposite in2="hardAlpha" operator="arithmetic" k2="-1" k3="1"/>
<feColorMatrix type="matrix" values="0 0 0 0 0 0 0 0 0 0 0 0 0 0 0 0 0 0 0.05 0"/>
<feBlend mode="normal" in2="shape" result="effect2_innerShadow_120_1002"/>
<feColorMatrix in="SourceAlpha" type="matrix" values="0 0 0 0 0 0 0 0 0 0 0 0 0 0 0 0 0 0 127 0" result="hardAlpha"/>
<feOffset dx="-8" dy="8"/>
<feGaussianBlur stdDeviation="6"/>
<feComposite in2="hardAlpha" operator="arithmetic" k2="-1" k3="1"/>
<feColorMatrix type="matrix" values="0 0 0 0 1 0 0 0 0 1 0 0 0 0 1 0 0 0 1 0"/>
<feBlend mode="normal" in2="effect2_innerShadow_120_1002" result="effect3_innerShadow_120_1002"/>
<feColorMatrix in="SourceAlpha" type="matrix" values="0 0 0 0 0 0 0 0 0 0 0 0 0 0 0 0 0 0 127 0" result="hardAlpha"/>
<feOffset dx="-8" dy="-24"/>
<feGaussianBlur stdDeviation="16"/>
<feComposite in2="hardAlpha" operator="arithmetic" k2="-1" k3="1"/>
<feColorMatrix type="matrix" values="0 0 0 0 0 0 0 0 0 0 0 0 0 0 0 0 0 0 0.1 0"/>
<feBlend mode="normal" in2="effect3_innerShadow_120_1002" result="effect4_innerShadow_120_1002"/>
</filter>
<filter id="filter1_i_120_1002" x="31.4529" y="12.4715" width="192.465" height="180.465" filterUnits="userSpaceOnUse" color-interpolation-filters="sRGB">
<feFlood flood-opacity="0" result="BackgroundImageFix"/>
<feBlend mode="normal" in="SourceGraphic" in2="BackgroundImageFix" result="shape"/>
<feColorMatrix in="SourceAlpha" type="matrix" values="0 0 0 0 0 0 0 0 0 0 0 0 0 0 0 0 0 0 127 0" result="hardAlpha"/>
<feOffset dx="24" dy="-12"/>
<feGaussianBlur stdDeviation="12"/>
<feComposite in2="hardAlpha" operator="arithmetic" k2="-1" k3="1"/>
<feColorMatrix type="matrix" values="0 0 0 0 1 0 0 0 0 1 0 0 0 0 1 0 0 0 0.3 0"/>
<feBlend mode="normal" in2="shape" result="effect1_innerShadow_120_1002"/>
</filter>
<filter id="filter2_ii_120_1002" x="51.2771" y="93.9095" width="34.7327" height="35.7328" filterUnits="userSpaceOnUse" color-interpolation-filters="sRGB">
<feFlood flood-opacity="0" result="BackgroundImageFix"/>
<feBlend mode="normal" in="SourceGraphic" in2="BackgroundImageFix" result="shape"/>
<feColorMatrix in="SourceAlpha" type="matrix" values="0 0 0 0 0 0 0 0 0 0 0 0 0 0 0 0 0 0 127 0" result="hardAlpha"/>
<feOffset dx="-3" dy="2"/>
<feGaussianBlur stdDeviation="4"/>
<feComposite in2="hardAlpha" operator="arithmetic" k2="-1" k3="1"/>
<feColorMatrix type="matrix" values="0 0 0 0 1 0 0 0 0 1 0 0 0 0 1 0 0 0 0.2 0"/>
<feBlend mode="normal" in2="shape" result="effect1_innerShadow_120_1002"/>
<feColorMatrix in="SourceAlpha" type="matrix" values="0 0 0 0 0 0 0 0 0 0 0 0 0 0 0 0 0 0 127 0" result="hardAlpha"/>
<feOffset dx="2" dy="-8"/>
<feGaussianBlur stdDeviation="2"/>
<feComposite in2="hardAlpha" operator="arithmetic" k2="-1" k3="1"/>
<feColorMatrix type="matrix" values="0 0 0 0 0 0 0 0 0 0 0 0 0 0 0 0 0 0 1 0"/>
<feBlend mode="normal" in2="effect1_innerShadow_120_1002" result="effect2_innerShadow_120_1002"/>
</filter>
<filter id="filter3_ii_120_1002" x="101.891" y="136.379" width="34.7327" height="35.7327" filterUnits="userSpaceOnUse" color-interpolation-filters="sRGB">
<feFlood flood-opacity="0" result="BackgroundImageFix"/>
<feBlend mode="normal" in="SourceGraphic" in2="BackgroundImageFix" result="shape"/>
<feColorMatrix in="SourceAlpha" type="matrix" values="0 0 0 0 0 0 0 0 0 0 0 0 0 0 0 0 0 0 127 0" result="hardAlpha"/>
<feOffset dx="-3" dy="2"/>
<feGaussianBlur stdDeviation="4"/>
<feComposite in2="hardAlpha" operator="arithmetic" k2="-1" k3="1"/>
<feColorMatrix type="matrix" values="0 0 0 0 1 0 0 0 0 1 0 0 0 0 1 0 0 0 0.2 0"/>
<feBlend mode="normal" in2="shape" result="effect1_innerShadow_120_1002"/>
<feColorMatrix in="SourceAlpha" type="matrix" values="0 0 0 0 0 0 0 0 0 0 0 0 0 0 0 0 0 0 127 0" result="hardAlpha"/>
<feOffset dx="2" dy="-8"/>
<feGaussianBlur stdDeviation="2"/>
<feComposite in2="hardAlpha" operator="arithmetic" k2="-1" k3="1"/>
<feColorMatrix type="matrix" values="0 0 0 0 0 0 0 0 0 0 0 0 0 0 0 0 0 0 1 0"/>
<feBlend mode="normal" in2="effect1_innerShadow_120_1002" result="effect2_innerShadow_120_1002"/>
</filter>
<filter id="filter4_ii_120_1002" x="144.361" y="85.7657" width="34.7327" height="35.7328" filterUnits="userSpaceOnUse" color-interpolation-filters="sRGB">
<feFlood flood-opacity="0" result="BackgroundImageFix"/>
<feBlend mode="normal" in="SourceGraphic" in2="BackgroundImageFix" result="shape"/>
<feColorMatrix in="SourceAlpha" type="matrix" values="0 0 0 0 0 0 0 0 0 0 0 0 0 0 0 0 0 0 127 0" result="hardAlpha"/>
<feOffset dx="-3" dy="2"/>
<feGaussianBlur stdDeviation="4"/>
<feComposite in2="hardAlpha" operator="arithmetic" k2="-1" k3="1"/>
<feColorMatrix type="matrix" values="0 0 0 0 1 0 0 0 0 1 0 0 0 0 1 0 0 0 0.2 0"/>
<feBlend mode="normal" in2="shape" result="effect1_innerShadow_120_1002"/>
<feColorMatrix in="SourceAlpha" type="matrix" values="0 0 0 0 0 0 0 0 0 0 0 0 0 0 0 0 0 0 127 0" result="hardAlpha"/>
<feOffset dx="2" dy="-8"/>
<feGaussianBlur stdDeviation="2"/>
<feComposite in2="hardAlpha" operator="arithmetic" k2="-1" k3="1"/>
<feColorMatrix type="matrix" values="0 0 0 0 0 0 0 0 0 0 0 0 0 0 0 0 0 0 1 0"/>
<feBlend mode="normal" in2="effect1_innerShadow_120_1002" result="effect2_innerShadow_120_1002"/>
</filter>
<filter id="filter5_ii_120_1002" x="93.7468" y="43.2958" width="34.7329" height="35.7328" filterUnits="userSpaceOnUse" color-interpolation-filters="sRGB">
<feFlood flood-opacity="0" result="BackgroundImageFix"/>
<feBlend mode="normal" in="SourceGraphic" in2="BackgroundImageFix" result="shape"/>
<feColorMatrix in="SourceAlpha" type="matrix" values="0 0 0 0 0 0 0 0 0 0 0 0 0 0 0 0 0 0 127 0" result="hardAlpha"/>
<feOffset dx="-3" dy="2"/>
<feGaussianBlur stdDeviation="4"/>
<feComposite in2="hardAlpha" operator="arithmetic" k2="-1" k3="1"/>
<feColorMatrix type="matrix" values="0 0 0 0 1 0 0 0 0 1 0 0 0 0 1 0 0 0 0.2 0"/>
<feBlend mode="normal" in2="shape" result="effect1_innerShadow_120_1002"/>
<feColorMatrix in="SourceAlpha" type="matrix" values="0 0 0 0 0 0 0 0 0 0 0 0 0 0 0 0 0 0 127 0" result="hardAlpha"/>
<feOffset dx="2" dy="-8"/>
<feGaussianBlur stdDeviation="2"/>
<feComposite in2="hardAlpha" operator="arithmetic" k2="-1" k3="1"/>
<feColorMatrix type="matrix" values="0 0 0 0 0 0 0 0 0 0 0 0 0 0 0 0 0 0 1 0"/>
<feBlend mode="normal" in2="effect1_innerShadow_120_1002" result="effect2_innerShadow_120_1002"/>
</filter>
<linearGradient id="paint0_linear_120_1002" x1="192.545" y1="82.6342" x2="21.1108" y2="119.909" gradientUnits="userSpaceOnUse">
<stop/>
<stop offset="1" stop-opacity="0"/>
</linearGradient>
<radialGradient id="paint1_radial_120_1002" cx="0" cy="0" r="1" gradientUnits="userSpaceOnUse" gradientTransform="translate(73.9213 107.082) rotate(130) scale(20.6473)">
<stop/>
<stop offset="0.572917" stop-color="#464646"/>
</radialGradient>
<radialGradient id="paint2_radial_120_1002" cx="0" cy="0" r="1" gradientUnits="userSpaceOnUse" gradientTransform="translate(124.535 149.552) rotate(130) scale(20.6473)">
<stop/>
<stop offset="0.572917" stop-color="#464646"/>
</radialGradient>
<radialGradient id="paint3_radial_120_1002" cx="0" cy="0" r="1" gradientUnits="userSpaceOnUse" gradientTransform="translate(167.005 98.9381) rotate(130) scale(20.6473)">
<stop/>
<stop offset="0.572917" stop-color="#464646"/>
</radialGradient>
<radialGradient id="paint4_radial_120_1002" cx="0" cy="0" r="1" gradientUnits="userSpaceOnUse" gradientTransform="translate(116.391 56.4682) rotate(130) scale(20.6473)">
<stop/>
<stop offset="0.572917" stop-color="#464646"/>
</radialGradient>
<clipPath id="clip0_120_1002">
<rect width="185" height="185" fill="white" transform="translate(101.099 -17.817) rotate(40)"/>
</clipPath>
</defs>
</svg>
