<svg width="225" height="225" viewBox="0 0 225 225" fill="none" xmlns="http://www.w3.org/2000/svg">
<g id="Frame" clip-path="url(#clip0_120_1120)">
<g id="Group" filter="url(#filter0_diii_120_1120)">
<path id="Vector" d="M110.105 8.51753L16.9862 71.3269C4.88549 79.4889 1.69256 95.9151 9.8546 108.016L72.6639 201.135C80.826 213.235 97.2522 216.428 109.353 208.266L202.472 145.457C214.572 137.295 217.765 120.869 209.603 108.768L146.794 15.6491C138.632 3.54842 122.206 0.355495 110.105 8.51753Z" fill="#EEEEEE"/>
</g>
<g id="Group_2" filter="url(#filter1_i_120_1120)">
<path id="Vector_2" d="M101.062 30.5567L40.8083 71.198C25.6824 81.4005 21.6912 101.933 31.8937 117.059L72.5351 177.312C82.7376 192.438 103.27 196.43 118.396 186.227L178.65 145.586C193.775 135.383 197.767 114.85 187.564 99.7244L146.923 39.4712C136.72 24.3453 116.187 20.3541 101.062 30.5567Z" fill="#F0F0F0"/>
<path id="Vector_3" d="M101.062 30.5567L40.8083 71.198C25.6824 81.4005 21.6912 101.933 31.8937 117.059L72.5351 177.312C82.7376 192.438 103.27 196.43 118.396 186.227L178.65 145.586C193.775 135.383 197.767 114.85 187.564 99.7244L146.923 39.4712C136.72 24.3453 116.187 20.3541 101.062 30.5567Z" fill="url(#paint0_linear_120_1120)" fill-opacity="0.05"/>
</g>
<g id="Group_3" opacity="0.9" filter="url(#filter2_ii_120_1120)">
<path id="Vector_4" d="M89.8593 161.642C85.7781 155.592 87.3747 147.379 93.4251 143.298C99.4755 139.217 107.688 140.813 111.77 146.864C115.851 152.914 114.254 161.127 108.204 165.208C102.153 169.289 93.9405 167.693 89.8593 161.642Z" fill="#222222"/>
<path id="Vector_5" d="M89.8593 161.642C85.7781 155.592 87.3747 147.379 93.4251 143.298C99.4755 139.217 107.688 140.813 111.77 146.864C115.851 152.914 114.254 161.127 108.204 165.208C102.153 169.289 93.9405 167.693 89.8593 161.642Z" fill="url(#paint1_radial_120_1120)" fill-opacity="0.3"/>
<path id="Vector_6" d="M107.28 163.839C101.986 167.41 94.7997 166.013 91.2288 160.719L88.49 162.566C93.0811 169.373 102.321 171.169 109.128 166.578L107.28 163.839ZM110.4 147.787C113.971 153.081 112.574 160.268 107.28 163.839L109.128 166.578C115.934 161.986 117.73 152.747 113.139 145.94L110.4 147.787ZM94.3489 144.667C99.6429 141.096 106.829 142.493 110.4 147.787L113.139 145.94C108.548 139.133 99.3082 137.337 92.5015 141.928L94.3489 144.667ZM92.5015 141.928C85.6949 146.52 83.8989 155.759 88.49 162.566L91.2288 160.719C87.6579 155.425 89.0548 148.238 94.3489 144.667L92.5015 141.928Z" fill="black"/>
</g>
<g id="Group_4" opacity="0.9" filter="url(#filter3_ii_120_1120)">
<path id="Vector_7" d="M107.688 69.92C103.607 63.8696 105.203 55.6567 111.254 51.5755C117.305 47.4943 125.517 49.0909 129.598 55.1413C133.679 61.1917 132.083 69.4045 126.033 73.4858C119.982 77.567 111.769 75.9704 107.688 69.92Z" fill="#222222"/>
<path id="Vector_8" d="M107.688 69.92C103.607 63.8696 105.203 55.6567 111.254 51.5755C117.305 47.4943 125.517 49.0909 129.598 55.1413C133.679 61.1917 132.083 69.4045 126.033 73.4858C119.982 77.567 111.769 75.9704 107.688 69.92Z" fill="url(#paint2_radial_120_1120)" fill-opacity="0.3"/>
<path id="Vector_9" d="M125.109 72.1164C119.815 75.6873 112.629 74.2904 109.058 68.9963L106.319 70.8436C110.91 77.6503 120.15 79.4462 126.956 74.8552L125.109 72.1164ZM128.229 56.065C131.8 61.359 130.403 68.5455 125.109 72.1164L126.956 74.8552C133.763 70.2641 135.559 61.0243 130.968 54.2176L128.229 56.065ZM112.178 52.9449C117.472 49.374 124.658 50.7709 128.229 56.065L130.968 54.2176C126.377 47.411 117.137 45.615 110.33 50.2061L112.178 52.9449ZM110.33 50.2061C103.524 54.7972 101.728 64.037 106.319 70.8436L109.058 68.9963C105.487 63.7022 106.884 56.5158 112.178 52.9449L110.33 50.2061Z" fill="black"/>
</g>
</g>
<defs>
<filter id="filter0_diii_120_1120" x="-6.66626" y="-20.0034" width="232.791" height="250.791" filterUnits="userSpaceOnUse" color-interpolation-filters="sRGB">
<feFlood flood-opacity="0" result="BackgroundImageFix"/>
<feColorMatrix in="SourceAlpha" type="matrix" values="0 0 0 0 0 0 0 0 0 0 0 0 0 0 0 0 0 0 127 0" result="hardAlpha"/>
<feOffset dy="6"/>
<feGaussianBlur stdDeviation="6"/>
<feComposite in2="hardAlpha" operator="out"/>
<feColorMatrix type="matrix" values="0 0 0 0 0 0 0 0 0 0 0 0 0 0 0 0 0 0 0.1 0"/>
<feBlend mode="normal" in2="BackgroundImageFix" result="effect1_dropShadow_120_1120"/>
<feBlend mode="normal" in="SourceGraphic" in2="effect1_dropShadow_120_1120" result="shape"/>
<feColorMatrix in="SourceAlpha" type="matrix" values="0 0 0 0 0 0 0 0 0 0 0 0 0 0 0 0 0 0 127 0" result="hardAlpha"/>
<feOffset dx="8" dy="8"/>
<feGaussianBlur stdDeviation="16"/>
<feComposite in2="hardAlpha" operator="arithmetic" k2="-1" k3="1"/>
<feColorMatrix type="matrix" values="0 0 0 0 0 0 0 0 0 0 0 0 0 0 0 0 0 0 0.05 0"/>
<feBlend mode="normal" in2="shape" result="effect2_innerShadow_120_1120"/>
<feColorMatrix in="SourceAlpha" type="matrix" values="0 0 0 0 0 0 0 0 0 0 0 0 0 0 0 0 0 0 127 0" result="hardAlpha"/>
<feOffset dx="-8" dy="8"/>
<feGaussianBlur stdDeviation="6"/>
<feComposite in2="hardAlpha" operator="arithmetic" k2="-1" k3="1"/>
<feColorMatrix type="matrix" values="0 0 0 0 1 0 0 0 0 1 0 0 0 0 1 0 0 0 1 0"/>
<feBlend mode="normal" in2="effect2_innerShadow_120_1120" result="effect3_innerShadow_120_1120"/>
<feColorMatrix in="SourceAlpha" type="matrix" values="0 0 0 0 0 0 0 0 0 0 0 0 0 0 0 0 0 0 127 0" result="hardAlpha"/>
<feOffset dx="-8" dy="-24"/>
<feGaussianBlur stdDeviation="16"/>
<feComposite in2="hardAlpha" operator="arithmetic" k2="-1" k3="1"/>
<feColorMatrix type="matrix" values="0 0 0 0 0 0 0 0 0 0 0 0 0 0 0 0 0 0 0.1 0"/>
<feBlend mode="normal" in2="effect3_innerShadow_120_1120" result="effect4_innerShadow_120_1120"/>
</filter>
<filter id="filter1_i_120_1120" x="26.2424" y="12.9055" width="190.973" height="178.973" filterUnits="userSpaceOnUse" color-interpolation-filters="sRGB">
<feFlood flood-opacity="0" result="BackgroundImageFix"/>
<feBlend mode="normal" in="SourceGraphic" in2="BackgroundImageFix" result="shape"/>
<feColorMatrix in="SourceAlpha" type="matrix" values="0 0 0 0 0 0 0 0 0 0 0 0 0 0 0 0 0 0 127 0" result="hardAlpha"/>
<feOffset dx="24" dy="-12"/>
<feGaussianBlur stdDeviation="12"/>
<feComposite in2="hardAlpha" operator="arithmetic" k2="-1" k3="1"/>
<feColorMatrix type="matrix" values="0 0 0 0 1 0 0 0 0 1 0 0 0 0 1 0 0 0 0.3 0"/>
<feBlend mode="normal" in2="shape" result="effect1_innerShadow_120_1120"/>
</filter>
<filter id="filter2_ii_120_1120" x="82.947" y="135.385" width="34.7351" height="35.7351" filterUnits="userSpaceOnUse" color-interpolation-filters="sRGB">
<feFlood flood-opacity="0" result="BackgroundImageFix"/>
<feBlend mode="normal" in="SourceGraphic" in2="BackgroundImageFix" result="shape"/>
<feColorMatrix in="SourceAlpha" type="matrix" values="0 0 0 0 0 0 0 0 0 0 0 0 0 0 0 0 0 0 127 0" result="hardAlpha"/>
<feOffset dx="-3" dy="2"/>
<feGaussianBlur stdDeviation="4"/>
<feComposite in2="hardAlpha" operator="arithmetic" k2="-1" k3="1"/>
<feColorMatrix type="matrix" values="0 0 0 0 1 0 0 0 0 1 0 0 0 0 1 0 0 0 0.2 0"/>
<feBlend mode="normal" in2="shape" result="effect1_innerShadow_120_1120"/>
<feColorMatrix in="SourceAlpha" type="matrix" values="0 0 0 0 0 0 0 0 0 0 0 0 0 0 0 0 0 0 127 0" result="hardAlpha"/>
<feOffset dx="2" dy="-8"/>
<feGaussianBlur stdDeviation="2"/>
<feComposite in2="hardAlpha" operator="arithmetic" k2="-1" k3="1"/>
<feColorMatrix type="matrix" values="0 0 0 0 0 0 0 0 0 0 0 0 0 0 0 0 0 0 1 0"/>
<feBlend mode="normal" in2="effect1_innerShadow_120_1120" result="effect2_innerShadow_120_1120"/>
</filter>
<filter id="filter3_ii_120_1120" x="100.776" y="43.6631" width="34.7351" height="35.7351" filterUnits="userSpaceOnUse" color-interpolation-filters="sRGB">
<feFlood flood-opacity="0" result="BackgroundImageFix"/>
<feBlend mode="normal" in="SourceGraphic" in2="BackgroundImageFix" result="shape"/>
<feColorMatrix in="SourceAlpha" type="matrix" values="0 0 0 0 0 0 0 0 0 0 0 0 0 0 0 0 0 0 127 0" result="hardAlpha"/>
<feOffset dx="-3" dy="2"/>
<feGaussianBlur stdDeviation="4"/>
<feComposite in2="hardAlpha" operator="arithmetic" k2="-1" k3="1"/>
<feColorMatrix type="matrix" values="0 0 0 0 1 0 0 0 0 1 0 0 0 0 1 0 0 0 0.2 0"/>
<feBlend mode="normal" in2="shape" result="effect1_innerShadow_120_1120"/>
<feColorMatrix in="SourceAlpha" type="matrix" values="0 0 0 0 0 0 0 0 0 0 0 0 0 0 0 0 0 0 127 0" result="hardAlpha"/>
<feOffset dx="2" dy="-8"/>
<feGaussianBlur stdDeviation="2"/>
<feComposite in2="hardAlpha" operator="arithmetic" k2="-1" k3="1"/>
<feColorMatrix type="matrix" values="0 0 0 0 0 0 0 0 0 0 0 0 0 0 0 0 0 0 1 0"/>
<feBlend mode="normal" in2="effect1_innerShadow_120_1120" result="effect2_innerShadow_120_1120"/>
</filter>
<linearGradient id="paint0_linear_120_1120" x1="105.854" y1="27.3238" x2="94.4319" y2="202.391" gradientUnits="userSpaceOnUse">
<stop/>
<stop offset="1" stop-opacity="0"/>
</linearGradient>
<radialGradient id="paint1_radial_120_1120" cx="0" cy="0" r="1" gradientUnits="userSpaceOnUse" gradientTransform="translate(96.6579 148.091) rotate(56) scale(20.6473)">
<stop/>
<stop offset="0.572917" stop-color="#464646"/>
</radialGradient>
<radialGradient id="paint2_radial_120_1120" cx="0" cy="0" r="1" gradientUnits="userSpaceOnUse" gradientTransform="translate(114.487 56.3684) rotate(56) scale(20.6473)">
<stop/>
<stop offset="0.572917" stop-color="#464646"/>
</radialGradient>
<clipPath id="clip0_120_1120">
<rect width="185" height="185" fill="white" transform="translate(-15.9114 87.5394) rotate(-34)"/>
</clipPath>
</defs>
</svg>
